<?xml version="1.0" encoding="UTF-8"?>
<svg width="500px" height="500px" viewBox="0 0 500 500" version="1.1" xmlns="http://www.w3.org/2000/svg" xmlns:xlink="http://www.w3.org/1999/xlink">
    <!-- Generator: Sketch 50.2 (55047) - http://www.bohemiancoding.com/sketch -->
    <title>Artboard</title>
    <desc>Created with Sketch.</desc>
    <defs></defs>
    <g id="Artboard" stroke="none" stroke-width="1" fill="none" fill-rule="evenodd">
        <path d="M25,12 L475,12 C479.418278,12 483,15.581722 483,20 L483,480 C483,484.418278 479.418278,488 475,488 L25,488 C20.581722,488 17,484.418278 17,480 L17,20 C17,15.581722 20.581722,12 25,12 Z M45,282.941487 L105.984609,282.941487 C114.262002,282.941487 121.382888,279.928804 127.347481,273.903349 C133.312073,267.877893 136.294325,260.726576 136.294325,252.449182 L136.294325,244.963048 C136.294325,236.929107 133.76854,229.838652 128.716896,223.69147 C123.665251,217.544288 116.087898,214.470743 105.984609,214.470743 C116.087898,213.25348 123.665251,210.119073 128.716896,205.067428 C133.76854,200.015783 136.294325,192.986191 136.294325,183.978439 L136.294325,176.492304 C136.294325,168.214911 133.312073,161.063594 127.347481,155.038138 C121.382888,149.012683 114.262002,146 105.984609,146 L45,146 L45,282.941487 Z M197.276584,282.941487 L227.768888,282.941487 L227.768888,222.139467 C247.975466,219.704939 258.078604,209.540939 258.078604,191.647162 L258.078604,146 L227.768888,146 L227.768888,191.647162 C227.768888,195.785859 226.277762,199.346302 223.295466,202.328598 C220.31317,205.310894 216.691865,206.80202 212.431442,206.80202 C208.292745,206.80202 204.732302,205.310894 201.750006,202.328598 C198.767709,199.346302 197.276584,195.785859 197.276584,191.647162 L197.276584,146 L166.784279,146 L166.784279,191.647162 C166.784279,209.540939 176.948279,219.704939 197.276584,222.139467 L197.276584,282.941487 Z M303.906005,282.941487 L334.215721,282.941487 L334.215721,161.154858 L364.708025,161.154858 L364.708025,146 L273.413701,146 L273.413701,161.154858 L303.906005,161.154858 L303.906005,282.941487 Z M379.860533,282.941487 L456,282.941487 L456,267.786629 L410.352838,267.786629 L410.352838,222.139467 L440.845142,222.139467 L440.845142,206.80202 L410.352838,206.80202 L410.352838,161.154858 L456,161.154858 L456,146 L379.860533,146 L379.860533,282.941487 Z M44,313 L44,337 L455,337 L455,313 L44,313 Z M44,358 L44,382 L273,382 L273,358 L44,358 Z" id="Combined-Shape" fill="#D96F6F"></path>
    </g>
</svg>